<svg xmlns="http://www.w3.org/2000/svg" xmlns:xlink="http://www.w3.org/1999/xlink" width="1020" height="863.27"><rect width="1020" height="863.27" rx="5" ry="5" class="a"/><svg y="0%" x="0%"><circle cx="20" cy="20" r="6" fill="#ff5f58"/><circle cx="40" cy="20" r="6" fill="#ffbd2e"/><circle cx="60" cy="20" r="6" fill="#18c132"/></svg><svg height="803.27" viewBox="0 0 98 80.327" width="980" x="15" xmlns="http://www.w3.org/2000/svg" xmlns:xlink="http://www.w3.org/1999/xlink" y="50"><style>@keyframes r{0%{transform:translateX(0)}3.5%{transform:translateX(-98px)}19.9%{transform:translateX(-196px)}21%{transform:translateX(-294px)}22.2%{transform:translateX(-392px)}24.2%{transform:translateX(-490px)}27.6%{transform:translateX(-588px)}30.5%{transform:translateX(-686px)}31.9%{transform:translateX(-784px)}33.1%{transform:translateX(-882px)}34.4%{transform:translateX(-980px)}37.1%{transform:translateX(-1078px)}45.1%{transform:translateX(-1176px)}49%{transform:translateX(-1274px)}49.1%{transform:translateX(-1470px)}49.7%{transform:translateX(-1568px)}52.9%{transform:translateX(-1666px)}53%{transform:translateX(-1764px)}53.3%{transform:translateX(-2254px)}53.4%{transform:translateX(-2940px)}53.5%{transform:translateX(-3136px)}54.4%{transform:translateX(-3234px)}to{transform:translateX(-3332px)}}.a{fill:#282d35}.f,.g{fill:#a8cc8c;font-weight:700}.g{fill:#71bef2}.h,.i{fill:#b9c0cb}.i{font-weight:700}.j{fill:#71bef2}.l{fill:#a8cc8c}.m{fill:#dbab79}.n{fill:#b9bfca}.o{fill:#d290e4}</style><g font-size="1.67" font-family="Monaco,Consolas,Menlo,'Bitstream Vera Sans Mono','Powerline Symbols',monospace"><defs><symbol id="1"><text y="1.67" class="f">weffe@weffe-desktop</text><text x="20.04" y="1.67" class="g">~/Desktop/axios-api-versioning/examples/with-nodejs</text><text x="72.144" y="1.67" class="g">$</text></symbol><symbol id="2"><text y="1.67" class="f">weffe@weffe-desktop</text><text x="20.04" y="1.67" class="g">~/Desktop/axios-api-versioning/examples/with-nodejs</text><text x="72.144" y="1.67" class="g">$</text><text x="74.148" y="1.67" class="h">yarn</text></symbol><symbol id="3"><text y="1.67" class="f">weffe@weffe-desktop</text><text x="20.04" y="1.67" class="g">~/Desktop/axios-api-versioning/examples/with-nodejs</text><text x="72.144" y="1.67" class="g">$</text><text x="74.148" y="1.67" class="h">yarn</text><text x="79.158" y="1.67" class="h">start</text></symbol><symbol id="4"><text y="1.67" class="i">yarn</text><text x="5.01" y="1.67" class="i">run</text><text x="9.018" y="1.67" class="i">v1.13.0</text></symbol><symbol id="5"><text y="1.67" class="h">$</text><text x="2.004" y="1.67" class="h">node</text><text x="7.014" y="1.67" class="h">main.js</text></symbol><symbol id="6"><path class="j" d="M0 0h37v2.171H0z"/><text y="1.67" fill="#fff">---- Running with-nodejs example ----</text></symbol><symbol id="7"><text y="1.67" class="h">JSON</text><text x="5.01" y="1.67" class="h">Server</text><text x="12.024" y="1.67" class="h">is</text><text x="15.03" y="1.67" class="h">running</text><text x="23.046" y="1.67" class="h">on</text><text x="26.052" y="1.67" class="h">port</text><text x="31.062" y="1.67" class="h">4000.</text></symbol><symbol id="8"><text y="1.67" class="h">GET</text><text x="4.008" y="1.67" class="h">/books?api-version=1</text><text x="25.05" y="1.67" class="l">200</text><text x="29.058" y="1.67" class="h">9.217</text><text x="35.07" y="1.67" class="h">ms</text><text x="38.076" y="1.67" class="h">-</text><text x="40.08" y="1.67" class="h">127</text></symbol><symbol id="9"><text y="1.67" class="m">----</text></symbol><symbol id="10"><text y="1.67" class="m">INFO:</text><text x="6.012" y="1.67" class="j">executing</text><text x="16.032" y="1.67" class="j">&quot;getBooksByQueryString&quot;...</text></symbol><symbol id="11"><text y="1.67" class="m">INFO:</text><text x="6.012" y="1.67" class="n">Successfully</text><text x="19.038" y="1.67" class="n">got</text><text x="23.046" y="1.67" class="n">some</text><text x="28.056" y="1.67" class="n">data!</text></symbol><symbol id="12"><text y="1.67" class="m">INFO:</text><text x="6.012" y="1.67" class="l">[</text></symbol><symbol id="13"><text x="2.004" y="1.67" class="l">{</text></symbol><symbol id="14"><text x="4.008" y="1.67" class="l">&quot;id&quot;:</text><text x="10.02" y="1.67" class="l">1,</text></symbol><symbol id="15"><text x="4.008" y="1.67" class="l">&quot;title&quot;:</text><text x="13.026" y="1.67" class="l">&quot;Judgment</text><text x="23.046" y="1.67" class="l">Crimes&quot;,</text></symbol><symbol id="16"><text x="4.008" y="1.67" class="l">&quot;author&quot;:</text><text x="14.028" y="1.67" class="l">&quot;John</text><text x="20.04" y="1.67" class="l">Doe&quot;,</text></symbol><symbol id="17"><text x="4.008" y="1.67" class="l">&quot;meta&quot;:</text><text x="12.024" y="1.67" class="l">{</text></symbol><symbol id="18"><text x="6.012" y="1.67" class="l">&quot;api-version&quot;:</text><text x="21.042" y="1.67" class="l">&quot;1&quot;</text></symbol><symbol id="19"><text x="4.008" y="1.67" class="l">}</text></symbol><symbol id="20"><text x="2.004" y="1.67" class="l">}</text></symbol><symbol id="21"><text y="1.67" class="l">]</text></symbol><symbol id="22"><text y="1.67" class="m">INFO:</text><text x="6.012" y="1.67" class="n">Request</text><text x="14.028" y="1.67" class="n">URL</text><text x="18.036" y="1.67" class="n">used</text><text x="23.046" y="1.67" class="n">-&gt;</text><text x="26.052" y="1.67" class="o">&quot;http://localhost:4000/books?api-version=1&quot;</text></symbol><symbol id="23"><text y="1.67" class="h">GET</text><text x="4.008" y="1.67" class="h">/v2/books</text><text x="14.028" y="1.67" class="l">200</text><text x="18.036" y="1.67" class="h">3.105</text><text x="24.048" y="1.67" class="h">ms</text><text x="27.054" y="1.67" class="h">-</text><text x="29.058" y="1.67" class="h">159</text></symbol><symbol id="24"><text x="4.008" y="1.67" class="l">&quot;publisher&quot;:</text><text x="17.034" y="1.67" class="l">&quot;ABC</text><text x="22.044" y="1.67" class="l">Writers&quot;,</text></symbol><symbol id="25"><text x="6.012" y="1.67" class="l">&quot;api-version&quot;:</text><text x="21.042" y="1.67" class="l">&quot;2&quot;</text></symbol><symbol id="26"><text y="1.67" class="m">INFO:</text><text x="6.012" y="1.67" class="n">Request</text><text x="14.028" y="1.67" class="n">URL</text><text x="18.036" y="1.67" class="n">used</text><text x="23.046" y="1.67" class="n">-&gt;</text><text x="26.052" y="1.67" class="o">&quot;http://localhost:4000/v2/books&quot;</text></symbol><symbol id="27"><text y="1.67" class="h">GET</text><text x="4.008" y="1.67" class="h">/books</text><text x="11.022" y="1.67" class="l">200</text><text x="15.03" y="1.67" class="h">0.515</text><text x="21.042" y="1.67" class="h">ms</text><text x="24.048" y="1.67" class="h">-</text><text x="26.052" y="1.67" class="h">188</text></symbol><symbol id="28"><text y="1.67" class="m">INFO:</text><text x="6.012" y="1.67" class="j">executing</text><text x="16.032" y="1.67" class="j">&quot;getBooksByMediaType&quot;...</text></symbol><symbol id="29"><text x="4.008" y="1.67" class="l">&quot;awards&quot;:</text><text x="14.028" y="1.67" class="l">&quot;Best</text><text x="20.04" y="1.67" class="l">Seller&quot;,</text></symbol><symbol id="30"><text x="6.012" y="1.67" class="l">&quot;api-version&quot;:</text><text x="21.042" y="1.67" class="l">&quot;3&quot;</text></symbol><symbol id="31"><text y="1.67" class="m">INFO:</text><text x="6.012" y="1.67" class="n">Accept</text><text x="13.026" y="1.67" class="n">Header</text><text x="20.04" y="1.67" class="n">used</text><text x="25.05" y="1.67" class="n">-&gt;</text><text x="28.056" y="1.67" class="o">&quot;application/json,</text><text x="47.094" y="1.67" class="o">text/plain,</text><text x="59.118" y="1.67" class="o">*/*;v=3&quot;</text></symbol><symbol id="32"><text y="1.67" class="h">Done</text><text x="5.01" y="1.67" class="h">in</text><text x="8.016" y="1.67" class="h">0.47s.</text></symbol><symbol id="a"><path fill="transparent" d="M0 0h98v37H0z"/></symbol><symbol id="b"><path fill="#6f7683" d="M0 0h1.102v2.171H0z"/></symbol></defs><path class="a" d="M0 0h98v80.327H0z"/><g style="animation-duration:10.49344s;animation-iteration-count:infinite;animation-name:r;animation-timing-function:steps(1,end)"><svg width="3430"><svg><use xlink:href="#a"/><use xlink:href="#b" x="-.004"/></svg><svg x="98"><use xlink:href="#a"/><use xlink:href="#b" x="73.996"/><use xlink:href="#1"/></svg><svg x="196"><use xlink:href="#a"/><use xlink:href="#b" x="74.996"/><text y="1.67" class="f">weffe@weffe-desktop</text><text x="20.04" y="1.67" class="g">~/Desktop/axios-api-versioning/examples/with-nodejs</text><text x="72.144" y="1.67" class="g">$</text><text x="74.148" y="1.67" class="h">y</text></svg><svg x="294"><use xlink:href="#a"/><use xlink:href="#b" x="75.996"/><text y="1.67" class="f">weffe@weffe-desktop</text><text x="20.04" y="1.67" class="g">~/Desktop/axios-api-versioning/examples/with-nodejs</text><text x="72.144" y="1.67" class="g">$</text><text x="74.148" y="1.67" class="h">ya</text></svg><svg x="392"><use xlink:href="#a"/><use xlink:href="#b" x="76.996"/><text y="1.67" class="f">weffe@weffe-desktop</text><text x="20.04" y="1.67" class="g">~/Desktop/axios-api-versioning/examples/with-nodejs</text><text x="72.144" y="1.67" class="g">$</text><text x="74.148" y="1.67" class="h">yar</text></svg><svg x="490"><use xlink:href="#a"/><use xlink:href="#b" x="77.996"/><use xlink:href="#2"/></svg><svg x="588"><use xlink:href="#a"/><use xlink:href="#b" x="78.996"/><use xlink:href="#2"/></svg><svg x="686"><use xlink:href="#a"/><use xlink:href="#b" x="79.996"/><text y="1.67" class="f">weffe@weffe-desktop</text><text x="20.04" y="1.67" class="g">~/Desktop/axios-api-versioning/examples/with-nodejs</text><text x="72.144" y="1.67" class="g">$</text><text x="74.148" y="1.67" class="h">yarn</text><text x="79.158" y="1.67" class="h">s</text></svg><svg x="784"><use xlink:href="#a"/><use xlink:href="#b" x="80.996"/><text y="1.67" class="f">weffe@weffe-desktop</text><text x="20.04" y="1.67" class="g">~/Desktop/axios-api-versioning/examples/with-nodejs</text><text x="72.144" y="1.67" class="g">$</text><text x="74.148" y="1.67" class="h">yarn</text><text x="79.158" y="1.67" class="h">st</text></svg><svg x="882"><use xlink:href="#a"/><use xlink:href="#b" x="81.996"/><text y="1.67" class="f">weffe@weffe-desktop</text><text x="20.04" y="1.67" class="g">~/Desktop/axios-api-versioning/examples/with-nodejs</text><text x="72.144" y="1.67" class="g">$</text><text x="74.148" y="1.67" class="h">yarn</text><text x="79.158" y="1.67" class="h">sta</text></svg><svg x="980"><use xlink:href="#a"/><use xlink:href="#b" x="82.996"/><text y="1.67" class="f">weffe@weffe-desktop</text><text x="20.04" y="1.67" class="g">~/Desktop/axios-api-versioning/examples/with-nodejs</text><text x="72.144" y="1.67" class="g">$</text><text x="74.148" y="1.67" class="h">yarn</text><text x="79.158" y="1.67" class="h">star</text></svg><svg x="1078"><use xlink:href="#a"/><use xlink:href="#b" x="83.996"/><use xlink:href="#3"/></svg><svg x="1176"><use xlink:href="#a"/><use xlink:href="#b" x="-.004" y="2.146"/><use xlink:href="#3"/></svg><svg x="1274"><use xlink:href="#a"/><use xlink:href="#b" x="-.004" y="2.146"/><use xlink:href="#3"/></svg><svg x="1372"><use xlink:href="#a"/><use xlink:href="#b" x="-.004" y="2.146"/><use xlink:href="#3"/></svg><svg x="1470"><use xlink:href="#a"/><use xlink:href="#b" x="-.004" y="4.317"/><use xlink:href="#3"/><use xlink:href="#4" y="2.171"/></svg><svg x="1568"><use xlink:href="#a"/><use xlink:href="#b" x="-.004" y="6.488"/><use xlink:href="#3"/><use xlink:href="#4" y="2.171"/><use xlink:href="#5" y="4.342"/></svg><svg x="1666"><use xlink:href="#a"/><use xlink:href="#b" x="-.004" y="8.659"/><use xlink:href="#3"/><use xlink:href="#4" y="2.171"/><use xlink:href="#5" y="4.342"/><use xlink:href="#6" y="6.513"/></svg><svg x="1764"><use xlink:href="#a"/><use xlink:href="#b" x="-.004" y="10.83"/><use xlink:href="#3"/><use xlink:href="#4" y="2.171"/><use xlink:href="#5" y="4.342"/><use xlink:href="#6" y="6.513"/><use xlink:href="#7" y="8.684"/></svg><svg x="1862"><use xlink:href="#a"/><use xlink:href="#b" x="-.004" y="13.001"/><use xlink:href="#3"/><use xlink:href="#4" y="2.171"/><use xlink:href="#5" y="4.342"/><use xlink:href="#6" y="6.513"/><use xlink:href="#7" y="8.684"/><use xlink:href="#8" y="10.855"/></svg><svg x="1960"><use xlink:href="#a"/><use xlink:href="#b" x="-.004" y="15.172"/><use xlink:href="#3"/><use xlink:href="#4" y="2.171"/><use xlink:href="#5" y="4.342"/><use xlink:href="#6" y="6.513"/><use xlink:href="#7" y="8.684"/><use xlink:href="#8" y="10.855"/><use xlink:href="#9" y="13.026"/></svg><svg x="2058"><use xlink:href="#a"/><use xlink:href="#b" x="-.004" y="17.343"/><use xlink:href="#3"/><use xlink:href="#4" y="2.171"/><use xlink:href="#5" y="4.342"/><use xlink:href="#6" y="6.513"/><use xlink:href="#7" y="8.684"/><use xlink:href="#8" y="10.855"/><use xlink:href="#9" y="13.026"/><use xlink:href="#10" y="15.197"/></svg><svg x="2156"><use xlink:href="#a"/><use xlink:href="#b" x="-.004" y="43.395"/><use xlink:href="#3"/><use xlink:href="#4" y="2.171"/><use xlink:href="#5" y="4.342"/><use xlink:href="#6" y="6.513"/><use xlink:href="#7" y="8.684"/><use xlink:href="#8" y="10.855"/><use xlink:href="#9" y="13.026"/><use xlink:href="#10" y="15.197"/><use xlink:href="#11" y="17.368"/><use xlink:href="#12" y="19.539"/><use xlink:href="#13" y="21.71"/><use xlink:href="#14" y="23.881"/><use xlink:href="#15" y="26.052"/><use xlink:href="#16" y="28.223"/><use xlink:href="#17" y="30.394"/><use xlink:href="#18" y="32.565"/><use xlink:href="#19" y="34.736"/><use xlink:href="#20" y="36.907"/><use xlink:href="#21" y="39.078"/><use xlink:href="#22" y="41.249"/></svg><svg x="2254"><use xlink:href="#a"/><use xlink:href="#b" x="-.004" y="45.566"/><use xlink:href="#3"/><use xlink:href="#4" y="2.171"/><use xlink:href="#5" y="4.342"/><use xlink:href="#6" y="6.513"/><use xlink:href="#7" y="8.684"/><use xlink:href="#8" y="10.855"/><use xlink:href="#9" y="13.026"/><use xlink:href="#10" y="15.197"/><use xlink:href="#11" y="17.368"/><use xlink:href="#12" y="19.539"/><use xlink:href="#13" y="21.71"/><use xlink:href="#14" y="23.881"/><use xlink:href="#15" y="26.052"/><use xlink:href="#16" y="28.223"/><use xlink:href="#17" y="30.394"/><use xlink:href="#18" y="32.565"/><use xlink:href="#19" y="34.736"/><use xlink:href="#20" y="36.907"/><use xlink:href="#21" y="39.078"/><use xlink:href="#22" y="41.249"/><use xlink:href="#9" y="43.42"/></svg><svg x="2352"><use xlink:href="#a"/><use xlink:href="#b" x="-.004" y="47.737"/><use xlink:href="#3"/><use xlink:href="#4" y="2.171"/><use xlink:href="#5" y="4.342"/><use xlink:href="#6" y="6.513"/><use xlink:href="#7" y="8.684"/><use xlink:href="#8" y="10.855"/><use xlink:href="#9" y="13.026"/><use xlink:href="#10" y="15.197"/><use xlink:href="#11" y="17.368"/><use xlink:href="#12" y="19.539"/><use xlink:href="#13" y="21.71"/><use xlink:href="#14" y="23.881"/><use xlink:href="#15" y="26.052"/><use xlink:href="#16" y="28.223"/><use xlink:href="#17" y="30.394"/><use xlink:href="#18" y="32.565"/><use xlink:href="#19" y="34.736"/><use xlink:href="#20" y="36.907"/><use xlink:href="#21" y="39.078"/><use xlink:href="#22" y="41.249"/><use xlink:href="#9" y="43.42"/><use xlink:href="#23" y="45.591"/></svg><svg x="2450"><use xlink:href="#a"/><use xlink:href="#b" x="-.004" y="49.908"/><use xlink:href="#3"/><use xlink:href="#4" y="2.171"/><use xlink:href="#5" y="4.342"/><use xlink:href="#6" y="6.513"/><use xlink:href="#7" y="8.684"/><use xlink:href="#8" y="10.855"/><use xlink:href="#9" y="13.026"/><use xlink:href="#10" y="15.197"/><use xlink:href="#11" y="17.368"/><use xlink:href="#12" y="19.539"/><use xlink:href="#13" y="21.71"/><use xlink:href="#14" y="23.881"/><use xlink:href="#15" y="26.052"/><use xlink:href="#16" y="28.223"/><use xlink:href="#17" y="30.394"/><use xlink:href="#18" y="32.565"/><use xlink:href="#19" y="34.736"/><use xlink:href="#20" y="36.907"/><use xlink:href="#21" y="39.078"/><use xlink:href="#22" y="41.249"/><use xlink:href="#9" y="43.42"/><use xlink:href="#23" y="45.591"/><use xlink:href="#9" y="47.762"/></svg><svg x="2548"><use xlink:href="#a"/><use xlink:href="#b" x="-.004" y="78.131"/><use xlink:href="#5"/><use xlink:href="#6" y="2.171"/><use xlink:href="#7" y="4.342"/><use xlink:href="#8" y="6.513"/><use xlink:href="#9" y="8.684"/><use xlink:href="#10" y="10.855"/><use xlink:href="#11" y="13.026"/><use xlink:href="#12" y="15.197"/><use xlink:href="#13" y="17.368"/><use xlink:href="#14" y="19.539"/><use xlink:href="#15" y="21.71"/><use xlink:href="#16" y="23.881"/><use xlink:href="#17" y="26.052"/><use xlink:href="#18" y="28.223"/><use xlink:href="#19" y="30.394"/><use xlink:href="#20" y="32.565"/><use xlink:href="#21" y="34.736"/><use xlink:href="#22" y="36.907"/><use xlink:href="#9" y="39.078"/><use xlink:href="#23" y="41.249"/><use xlink:href="#9" y="43.42"/><use xlink:href="#10" y="45.591"/><use xlink:href="#11" y="47.762"/><use xlink:href="#12" y="49.933"/><use xlink:href="#13" y="52.104"/><use xlink:href="#14" y="54.275"/><use xlink:href="#15" y="56.446"/><use xlink:href="#16" y="58.617"/><use xlink:href="#24" y="60.788"/><use xlink:href="#17" y="62.959"/><use xlink:href="#25" y="65.13"/><use xlink:href="#19" y="67.301"/><use xlink:href="#20" y="69.472"/><use xlink:href="#21" y="71.643"/><use xlink:href="#26" y="73.814"/><use xlink:href="#9" y="75.985"/></svg><svg x="2646"><use xlink:href="#a"/><use xlink:href="#b" x="-.004" y="78.131"/><use xlink:href="#6"/><use xlink:href="#7" y="2.171"/><use xlink:href="#8" y="4.342"/><use xlink:href="#9" y="6.513"/><use xlink:href="#10" y="8.684"/><use xlink:href="#11" y="10.855"/><use xlink:href="#12" y="13.026"/><use xlink:href="#13" y="15.197"/><use xlink:href="#14" y="17.368"/><use xlink:href="#15" y="19.539"/><use xlink:href="#16" y="21.71"/><use xlink:href="#17" y="23.881"/><use xlink:href="#18" y="26.052"/><use xlink:href="#19" y="28.223"/><use xlink:href="#20" y="30.394"/><use xlink:href="#21" y="32.565"/><use xlink:href="#22" y="34.736"/><use xlink:href="#9" y="36.907"/><use xlink:href="#23" y="39.078"/><use xlink:href="#9" y="41.249"/><use xlink:href="#10" y="43.42"/><use xlink:href="#11" y="45.591"/><use xlink:href="#12" y="47.762"/><use xlink:href="#13" y="49.933"/><use xlink:href="#14" y="52.104"/><use xlink:href="#15" y="54.275"/><use xlink:href="#16" y="56.446"/><use xlink:href="#24" y="58.617"/><use xlink:href="#17" y="60.788"/><use xlink:href="#25" y="62.959"/><use xlink:href="#19" y="65.13"/><use xlink:href="#20" y="67.301"/><use xlink:href="#21" y="69.472"/><use xlink:href="#26" y="71.643"/><use xlink:href="#9" y="73.814"/><use xlink:href="#27" y="75.985"/></svg><svg x="2744"><use xlink:href="#a"/><use xlink:href="#b" x="-.004" y="78.131"/><use xlink:href="#7"/><use xlink:href="#8" y="2.171"/><use xlink:href="#9" y="4.342"/><use xlink:href="#10" y="6.513"/><use xlink:href="#11" y="8.684"/><use xlink:href="#12" y="10.855"/><use xlink:href="#13" y="13.026"/><use xlink:href="#14" y="15.197"/><use xlink:href="#15" y="17.368"/><use xlink:href="#16" y="19.539"/><use xlink:href="#17" y="21.71"/><use xlink:href="#18" y="23.881"/><use xlink:href="#19" y="26.052"/><use xlink:href="#20" y="28.223"/><use xlink:href="#21" y="30.394"/><use xlink:href="#22" y="32.565"/><use xlink:href="#9" y="34.736"/><use xlink:href="#23" y="36.907"/><use xlink:href="#9" y="39.078"/><use xlink:href="#10" y="41.249"/><use xlink:href="#11" y="43.42"/><use xlink:href="#12" y="45.591"/><use xlink:href="#13" y="47.762"/><use xlink:href="#14" y="49.933"/><use xlink:href="#15" y="52.104"/><use xlink:href="#16" y="54.275"/><use xlink:href="#24" y="56.446"/><use xlink:href="#17" y="58.617"/><use xlink:href="#25" y="60.788"/><use xlink:href="#19" y="62.959"/><use xlink:href="#20" y="65.13"/><use xlink:href="#21" y="67.301"/><use xlink:href="#26" y="69.472"/><use xlink:href="#9" y="71.643"/><use xlink:href="#27" y="73.814"/><use xlink:href="#9" y="75.985"/></svg><svg x="2842"><use xlink:href="#a"/><use xlink:href="#b" x="-.004" y="78.131"/><use xlink:href="#9"/><use xlink:href="#10" y="2.171"/><use xlink:href="#11" y="4.342"/><use xlink:href="#12" y="6.513"/><use xlink:href="#13" y="8.684"/><use xlink:href="#14" y="10.855"/><use xlink:href="#15" y="13.026"/><use xlink:href="#16" y="15.197"/><use xlink:href="#17" y="17.368"/><use xlink:href="#18" y="19.539"/><use xlink:href="#19" y="21.71"/><use xlink:href="#20" y="23.881"/><use xlink:href="#21" y="26.052"/><use xlink:href="#22" y="28.223"/><use xlink:href="#9" y="30.394"/><use xlink:href="#23" y="32.565"/><use xlink:href="#9" y="34.736"/><use xlink:href="#10" y="36.907"/><use xlink:href="#11" y="39.078"/><use xlink:href="#12" y="41.249"/><use xlink:href="#13" y="43.42"/><use xlink:href="#14" y="45.591"/><use xlink:href="#15" y="47.762"/><use xlink:href="#16" y="49.933"/><use xlink:href="#24" y="52.104"/><use xlink:href="#17" y="54.275"/><use xlink:href="#25" y="56.446"/><use xlink:href="#19" y="58.617"/><use xlink:href="#20" y="60.788"/><use xlink:href="#21" y="62.959"/><use xlink:href="#26" y="65.13"/><use xlink:href="#9" y="67.301"/><use xlink:href="#27" y="69.472"/><use xlink:href="#9" y="71.643"/><use xlink:href="#28" y="73.814"/><use xlink:href="#11" y="75.985"/></svg><svg x="2940"><use xlink:href="#a"/><use xlink:href="#b" x="-.004" y="78.131"/><use xlink:href="#9"/><use xlink:href="#23" y="2.171"/><use xlink:href="#9" y="4.342"/><use xlink:href="#10" y="6.513"/><use xlink:href="#11" y="8.684"/><use xlink:href="#12" y="10.855"/><use xlink:href="#13" y="13.026"/><use xlink:href="#14" y="15.197"/><use xlink:href="#15" y="17.368"/><use xlink:href="#16" y="19.539"/><use xlink:href="#24" y="21.71"/><use xlink:href="#17" y="23.881"/><use xlink:href="#25" y="26.052"/><use xlink:href="#19" y="28.223"/><use xlink:href="#20" y="30.394"/><use xlink:href="#21" y="32.565"/><use xlink:href="#26" y="34.736"/><use xlink:href="#9" y="36.907"/><use xlink:href="#27" y="39.078"/><use xlink:href="#9" y="41.249"/><use xlink:href="#28" y="43.42"/><use xlink:href="#11" y="45.591"/><use xlink:href="#12" y="47.762"/><use xlink:href="#13" y="49.933"/><use xlink:href="#14" y="52.104"/><use xlink:href="#15" y="54.275"/><use xlink:href="#16" y="56.446"/><use xlink:href="#24" y="58.617"/><use xlink:href="#29" y="60.788"/><use xlink:href="#17" y="62.959"/><use xlink:href="#30" y="65.13"/><use xlink:href="#19" y="67.301"/><use xlink:href="#20" y="69.472"/><use xlink:href="#21" y="71.643"/><use xlink:href="#31" y="73.814"/><use xlink:href="#9" y="75.985"/></svg><svg x="3038"><use xlink:href="#a"/><use xlink:href="#b" x="-.004" y="78.131"/><use xlink:href="#9"/><use xlink:href="#23" y="2.171"/><use xlink:href="#9" y="4.342"/><use xlink:href="#10" y="6.513"/><use xlink:href="#11" y="8.684"/><use xlink:href="#12" y="10.855"/><use xlink:href="#13" y="13.026"/><use xlink:href="#14" y="15.197"/><use xlink:href="#15" y="17.368"/><use xlink:href="#16" y="19.539"/><use xlink:href="#24" y="21.71"/><use xlink:href="#17" y="23.881"/><use xlink:href="#25" y="26.052"/><use xlink:href="#19" y="28.223"/><use xlink:href="#20" y="30.394"/><use xlink:href="#21" y="32.565"/><use xlink:href="#26" y="34.736"/><use xlink:href="#9" y="36.907"/><use xlink:href="#27" y="39.078"/><use xlink:href="#9" y="41.249"/><use xlink:href="#28" y="43.42"/><use xlink:href="#11" y="45.591"/><use xlink:href="#12" y="47.762"/><use xlink:href="#13" y="49.933"/><use xlink:href="#14" y="52.104"/><use xlink:href="#15" y="54.275"/><use xlink:href="#16" y="56.446"/><use xlink:href="#24" y="58.617"/><use xlink:href="#29" y="60.788"/><use xlink:href="#17" y="62.959"/><use xlink:href="#30" y="65.13"/><use xlink:href="#19" y="67.301"/><use xlink:href="#20" y="69.472"/><use xlink:href="#21" y="71.643"/><use xlink:href="#31" y="73.814"/><use xlink:href="#9" y="75.985"/></svg><svg x="3136"><use xlink:href="#a"/><use xlink:href="#b" x="-.004" y="78.131"/><use xlink:href="#23"/><use xlink:href="#9" y="2.171"/><use xlink:href="#10" y="4.342"/><use xlink:href="#11" y="6.513"/><use xlink:href="#12" y="8.684"/><use xlink:href="#13" y="10.855"/><use xlink:href="#14" y="13.026"/><use xlink:href="#15" y="15.197"/><use xlink:href="#16" y="17.368"/><use xlink:href="#24" y="19.539"/><use xlink:href="#17" y="21.71"/><use xlink:href="#25" y="23.881"/><use xlink:href="#19" y="26.052"/><use xlink:href="#20" y="28.223"/><use xlink:href="#21" y="30.394"/><use xlink:href="#26" y="32.565"/><use xlink:href="#9" y="34.736"/><use xlink:href="#27" y="36.907"/><use xlink:href="#9" y="39.078"/><use xlink:href="#28" y="41.249"/><use xlink:href="#11" y="43.42"/><use xlink:href="#12" y="45.591"/><use xlink:href="#13" y="47.762"/><use xlink:href="#14" y="49.933"/><use xlink:href="#15" y="52.104"/><use xlink:href="#16" y="54.275"/><use xlink:href="#24" y="56.446"/><use xlink:href="#29" y="58.617"/><use xlink:href="#17" y="60.788"/><use xlink:href="#30" y="62.959"/><use xlink:href="#19" y="65.13"/><use xlink:href="#20" y="67.301"/><use xlink:href="#21" y="69.472"/><use xlink:href="#31" y="71.643"/><use xlink:href="#9" y="73.814"/><use xlink:href="#32" y="75.985"/></svg><svg x="3234"><use xlink:href="#a"/><use xlink:href="#b" x="73.996" y="78.131"/><use xlink:href="#23"/><use xlink:href="#9" y="2.171"/><use xlink:href="#10" y="4.342"/><use xlink:href="#11" y="6.513"/><use xlink:href="#12" y="8.684"/><use xlink:href="#13" y="10.855"/><use xlink:href="#14" y="13.026"/><use xlink:href="#15" y="15.197"/><use xlink:href="#16" y="17.368"/><use xlink:href="#24" y="19.539"/><use xlink:href="#17" y="21.71"/><use xlink:href="#25" y="23.881"/><use xlink:href="#19" y="26.052"/><use xlink:href="#20" y="28.223"/><use xlink:href="#21" y="30.394"/><use xlink:href="#26" y="32.565"/><use xlink:href="#9" y="34.736"/><use xlink:href="#27" y="36.907"/><use xlink:href="#9" y="39.078"/><use xlink:href="#28" y="41.249"/><use xlink:href="#11" y="43.42"/><use xlink:href="#12" y="45.591"/><use xlink:href="#13" y="47.762"/><use xlink:href="#14" y="49.933"/><use xlink:href="#15" y="52.104"/><use xlink:href="#16" y="54.275"/><use xlink:href="#24" y="56.446"/><use xlink:href="#29" y="58.617"/><use xlink:href="#17" y="60.788"/><use xlink:href="#30" y="62.959"/><use xlink:href="#19" y="65.13"/><use xlink:href="#20" y="67.301"/><use xlink:href="#21" y="69.472"/><use xlink:href="#31" y="71.643"/><use xlink:href="#9" y="73.814"/><use xlink:href="#32" y="75.985"/><use xlink:href="#1" y="78.156"/></svg><svg x="3332"><use xlink:href="#a"/><use xlink:href="#b" x="49.996" y="78.131"/><use xlink:href="#9"/><use xlink:href="#10" y="2.171"/><use xlink:href="#11" y="4.342"/><use xlink:href="#12" y="6.513"/><use xlink:href="#13" y="8.684"/><use xlink:href="#14" y="10.855"/><use xlink:href="#15" y="13.026"/><use xlink:href="#16" y="15.197"/><use xlink:href="#24" y="17.368"/><use xlink:href="#17" y="19.539"/><use xlink:href="#25" y="21.71"/><use xlink:href="#19" y="23.881"/><use xlink:href="#20" y="26.052"/><use xlink:href="#21" y="28.223"/><use xlink:href="#26" y="30.394"/><use xlink:href="#9" y="32.565"/><use xlink:href="#27" y="34.736"/><use xlink:href="#9" y="36.907"/><use xlink:href="#28" y="39.078"/><use xlink:href="#11" y="41.249"/><use xlink:href="#12" y="43.42"/><use xlink:href="#13" y="45.591"/><use xlink:href="#14" y="47.762"/><use xlink:href="#15" y="49.933"/><use xlink:href="#16" y="52.104"/><use xlink:href="#24" y="54.275"/><use xlink:href="#29" y="56.446"/><use xlink:href="#17" y="58.617"/><use xlink:href="#30" y="60.788"/><use xlink:href="#19" y="62.959"/><use xlink:href="#20" y="65.13"/><use xlink:href="#21" y="67.301"/><use xlink:href="#31" y="69.472"/><use xlink:href="#9" y="71.643"/><use xlink:href="#32" y="73.814"/><text y="77.655" class="f">weffe@weffe-desktop</text><text x="20.04" y="77.655" class="g">~/Desktop/axios-api-versioning/examples/with-nodejs</text><text x="72.144" y="77.655" class="g">$</text><text x="74.148" y="77.655" class="f">weffe@weffe-desktop</text><text x="94.188" y="77.655" class="g">~/De</text><text y="79.826" class="g">sktop/axios-api-versioning/examples/with-nodejs</text><text x="48.096" y="79.826" class="g">$</text></svg></svg></g></g></svg></svg>